<?xml version="1.0" standalone="no"?>
<!DOCTYPE svg PUBLIC "-//W3C//DTD SVG 20010904//EN"
 "http://www.w3.org/TR/2001/REC-SVG-20010904/DTD/svg10.dtd">
<svg version="1.0" xmlns="http://www.w3.org/2000/svg"
 width="2520.000000pt" height="2520.000000pt" viewBox="0 0 2520.000000 2520.000000"
 preserveAspectRatio="xMidYMid meet">

<g transform="translate(0.000000,2520.000000) scale(0.100000,-0.100000)"
fill="#000000" stroke="none">
<path d="M18795 17530 c-594 -136 -1366 -784 -2256 -1895 -152 -190 -428 -559
-589 -790 -130 -184 -340 -500 -340 -510 0 -5 484 382 645 515 44 36 175 143
290 236 875 708 1381 1067 1787 1269 295 146 483 191 634 151 422 -112 1213
-964 2024 -2181 888 -1332 1565 -2716 1820 -3721 171 -673 150 -1149 -64
-1431 -158 -208 -476 -306 -899 -275 -669 49 -1496 355 -2255 836 -476 302
-1301 947 -2072 1620 -439 384 -1098 984 -1445 1316 -49 48 -187 178 -305 291
-396 376 -894 860 -1595 1549 -537 528 -1229 1200 -1590 1545 -126 121 -273
261 -325 311 -477 458 -825 672 -1217 751 -136 27 -424 24 -563 -6 -390 -83
-771 -297 -1160 -652 -300 -273 -473 -462 -975 -1070 -1836 -2220 -3609 -4038
-5337 -5472 -837 -694 -1721 -1335 -2503 -1815 -99 -61 -187 -115 -195 -121
-27 -17 265 51 470 110 1549 446 3264 1514 5625 3503 691 582 2024 1756 2674
2355 629 578 1062 872 1428 967 194 51 328 32 554 -78 367 -177 823 -535 1532
-1201 290 -272 1123 -1109 1773 -1782 681 -705 1423 -1463 1606 -1640 67 -66
191 -185 273 -265 333 -324 703 -666 1045 -965 1570 -1374 2728 -2016 4003
-2220 312 -49 457 -60 842 -60 368 0 498 8 730 45 999 159 1686 853 1905 1925
96 470 90 1067 -16 1603 -117 592 -288 1043 -679 1792 -893 1711 -1906 3141
-2961 4181 -321 316 -520 490 -794 696 -634 475 -1144 670 -1525 583z"/>
</g>
</svg>
